<?xml version="1.0" encoding="utf-8"?>
<!-- Generator: Adobe Illustrator 16.0.0, SVG Export Plug-In . SVG Version: 6.00 Build 0)  -->
<!DOCTYPE svg PUBLIC "-//W3C//DTD SVG 1.1//EN" "http://www.w3.org/Graphics/SVG/1.1/DTD/svg11.dtd">
<svg version="1.1" id="圖層_1" xmlns="http://www.w3.org/2000/svg" xmlns:xlink="http://www.w3.org/1999/xlink" x="0px" y="0px"
	 width="300px" height="150px" viewBox="0 0 300 150" enable-background="new 0 0 300 150" xml:space="preserve">
<g>
	<circle fill="#FFFFFF" cx="127.025" cy="93.193" r="2.931"/>
	<path fill="#FFFFFF" d="M132.802,71.594l-18.799,2.742v8.922l9.054,6.283c0.988-1.074,2.401-1.751,3.978-1.751
		c0.479,0,0.943,0.069,1.385,0.185l6.122-14.025C133.764,73.344,133.156,72.532,132.802,71.594z"/>
	<path fill="#FFFFFF" d="M164.898,10.577c1.621,0,2.934-1.312,2.934-2.931c0-0.022-0.008-0.041-0.008-0.063
		c-2.18-0.835-3.538-1.166-3.538-1.166h-2.043c-0.172,0.377-0.277,0.787-0.277,1.229C161.966,9.266,163.278,10.577,164.898,10.577z"
		/>
	<path fill="#FFFFFF" d="M135.399,64.861l-5.671-40.186c-1.341-0.1-2.547-0.683-3.439-1.58l-12.285,7.999v40.797l18.466-2.693
		C132.637,67.303,133.782,65.688,135.399,64.861z"/>
	<circle fill="#FFFFFF" cx="172.717" cy="85.95" r="2.933"/>
	<path fill="#FFFFFF" d="M177.565,33.223l-9.3,6.057c3.03,3.671,5.494,8.911,5.601,16.271c0.29,19.522-17.289,24.134-17.289,24.134
		h-17v-4.881c-0.542,0.183-1.118,0.285-1.719,0.285c-0.387,0-0.761-0.041-1.122-0.117l-6.172,14.134
		c0.819,0.705,1.42,1.649,1.701,2.728l35.062-5.681c-0.003-0.064-0.01-0.127-0.01-0.194c0-2.989,2.421-5.411,5.409-5.411
		c0.021,0,0.04,0.002,0.057,0.002l6.242-46.398C178.483,33.921,177.997,33.605,177.565,33.223z"/>
	<path fill="#FFFFFF" d="M195.752,34.756c-1.864-4.735-4.305-8.721-6.999-12.07l-3.039,3.6c0.53,0.835,0.84,1.824,0.84,2.886
		c0,0.648-0.119,1.268-0.329,1.845L195.752,34.756z"/>
	<path fill="#FFFFFF" d="M168.96,11.231l9.317,13.354c0.832-0.521,1.811-0.825,2.864-0.825c1.047,0,2.022,0.303,2.849,0.816
		l3.174-3.76c-5.736-6.399-12.307-10.168-16.928-12.232C170.061,9.59,169.609,10.498,168.96,11.231z"/>
	<path fill="#FFFFFF" d="M167,12.646c-0.646,0.269-1.351,0.42-2.09,0.42c-1.713,0-3.235-0.798-4.229-2.038l-25.17,8.654
		c-0.154,2.11-1.507,3.887-3.394,4.632l5.641,39.958c0.034,0,0.065-0.006,0.101-0.006c0.601,0,1.177,0.104,1.719,0.284V31.418
		h17.147c0,0,5.213,1.429,9.89,6.052l9.537-6.21c-0.271-0.644-0.421-1.349-0.421-2.089c0-1.044,0.302-2.017,0.814-2.844L167,12.646z
		"/>
	<path fill="#FFFFFF" d="M125.016,21.04c-0.191-0.551-0.297-1.141-0.297-1.756c0-2.475,1.663-4.558,3.935-5.201l0.341-7.665h-14.991
		v21.791L125.016,21.04z"/>
	<path fill="#FFFFFF" d="M123.484,97.277c-1.138-0.993-1.859-2.447-1.859-4.076c0-0.539,0.081-1.062,0.229-1.552l-7.85-5.447v18.478
		h6.367L123.484,97.277z"/>
	<path fill="#FFFFFF" d="M134.916,69.671c0,1.619,1.312,2.932,2.93,2.932c0.65,0,1.245-0.218,1.73-0.575v-4.714
		c-0.486-0.358-1.08-0.574-1.73-0.574C136.228,66.739,134.916,68.049,134.916,69.671z"/>
	<path fill="#FFFFFF" d="M184.873,33.083c-0.911,0.869-2.125,1.422-3.468,1.486l-6.261,46.555c1.775,0.889,2.993,2.717,2.993,4.834
		c0,0.5-0.073,0.983-0.202,1.443l8.315,3.267c7.17-7.485,13.192-18.668,13.192-35.117c0-6.786-0.984-12.671-2.618-17.774
		L184.873,33.083z"/>
	<path fill="#FFFFFF" d="M176.772,89.545c-0.993,1.115-2.433,1.823-4.047,1.823c-2.068,0-3.864-1.161-4.774-2.866l-35.613,5.77
		c-0.497,2.475-2.682,4.341-5.304,4.341c-0.488,0-0.959-0.071-1.408-0.192l-2.632,6.26h39.708c0,0,11.526-2.667,21.667-12.153
		L176.772,89.545z"/>
	<circle fill="#FFFFFF" cx="181.131" cy="29.164" r="2.932"/>
	<path fill="#FFFFFF" d="M131.412,6.418l-0.335,7.543c1.852,0.33,3.375,1.596,4.063,3.291l24.49-8.419
		c-0.084-0.381-0.132-0.773-0.132-1.179c0-0.425,0.054-0.838,0.147-1.236H131.412z"/>
	<circle fill="#FFFFFF" cx="130.12" cy="19.277" r="2.931"/>
</g>
<polygon fill="#FFFFFF" points="97.597,22.672 94.469,6.331 94.239,6.331 82.51,19.353 75.656,26.963 79.937,27.863 66.884,70.998 
	56.751,51.566 56.14,51.566 51.552,51.566 51.339,51.566 48.623,51.566 46.142,51.566 36.006,70.998 16.442,6.335 0.801,6.327 
	27.808,104.596 37.453,104.772 51.339,78.786 51.339,78.701 51.552,78.701 51.552,78.786 65.438,104.772 75.083,104.596 
	95.286,31.085 99.373,31.943 "/>
<g>
	<path fill="#FFFFFF" d="M267.466,78.519c-1.736,0.511-3.554,0.831-5.429,0.932v25.462c1.836-0.05,3.647-0.194,5.429-0.438V78.519z"
		/>
	<path fill="#FFFFFF" d="M258.354,79.376c-2.384-0.239-4.662-0.827-6.787-1.713v26.422c2.214,0.416,4.477,0.693,6.787,0.805V79.376z
		"/>
	<path fill="#FFFFFF" d="M258.354,31.9V6.387c-2.311,0.111-4.573,0.388-6.787,0.805v26.421
		C253.691,32.726,255.97,32.138,258.354,31.9z"/>
	<path fill="#FFFFFF" d="M267.466,32.756V6.801c-1.783-0.243-3.593-0.391-5.429-0.437v25.459
		C263.912,31.924,265.729,32.246,267.466,32.756z"/>
	<path fill="#FFFFFF" d="M247.688,103.188V75.604c-6.506-4.26-10.806-11.608-10.806-19.966s4.3-15.705,10.806-19.966V8.086
		c-5.955,1.63-11.462,4.341-16.289,7.921v79.261C236.227,98.848,241.733,101.56,247.688,103.188z"/>
	<path fill="#FFFFFF" d="M228.104,18.685c-10.224,9.035-16.676,22.238-16.676,36.953c0,14.716,6.452,27.917,16.676,36.953V18.685z"
		/>
	<path fill="#FFFFFF" d="M290.931,94.598c3.059-2.379,5.842-5.095,8.269-8.113l-8.269-8.271V94.598z"/>
	<path fill="#FFFFFF" d="M288.799,76.082l-7.823-7.818c-2.406,3.854-5.888,6.964-10.019,8.928v26.678
		c6.515-1.376,12.551-4.033,17.842-7.704V76.082z"/>
	<path fill="#FFFFFF" d="M270.957,7.404v26.674c3.934,1.871,7.276,4.783,9.67,8.386l8.172-8.17V15.091
		C283.508,11.426,277.469,8.777,270.957,7.404z"/>
	<path fill="#FFFFFF" d="M290.931,16.656V32.16l7.872-7.873C296.472,21.46,293.827,18.903,290.931,16.656z"/>
</g>
<g>
	<path fill="#FFFFFF" d="M236.33,131.272c0.257,0,0.484,0.077,0.684,0.231l1.859,1.565c-1.029,0.989-2.295,1.747-3.797,2.273
		c-1.503,0.526-3.306,0.789-5.41,0.789c-1.883,0-3.575-0.249-5.077-0.749c-1.503-0.499-2.786-1.192-3.85-2.082
		c-1.064-0.89-1.88-1.951-2.446-3.186c-0.567-1.233-0.851-2.581-0.851-4.042c0-1.479,0.304-2.834,0.912-4.063
		c0.607-1.229,1.464-2.289,2.568-3.179c1.105-0.889,2.423-1.581,3.955-2.075c1.531-0.495,3.227-0.742,5.086-0.742
		c1.847,0,3.486,0.236,4.919,0.708c1.432,0.472,2.651,1.089,3.656,1.852l-1.578,1.701c-0.094,0.108-0.213,0.204-0.359,0.286
		c-0.146,0.081-0.348,0.122-0.605,0.122c-0.175,0-0.356-0.038-0.543-0.115c-0.188-0.077-0.393-0.173-0.614-0.286
		s-0.479-0.238-0.771-0.374c-0.292-0.137-0.631-0.261-1.018-0.375c-0.386-0.113-0.833-0.208-1.341-0.285
		c-0.509-0.077-1.097-0.116-1.763-0.116c-1.134,0-2.172,0.156-3.113,0.47s-1.751,0.767-2.429,1.361
		c-0.678,0.594-1.204,1.32-1.578,2.178s-0.562,1.835-0.562,2.934c0,1.106,0.202,2.092,0.605,2.953
		c0.403,0.862,0.949,1.588,1.64,2.178c0.689,0.59,1.502,1.042,2.438,1.354c0.936,0.313,1.94,0.47,3.017,0.47
		c0.643,0,1.225-0.027,1.745-0.082c0.52-0.054,0.999-0.141,1.438-0.258c0.438-0.118,0.854-0.271,1.245-0.456
		c0.392-0.187,0.78-0.415,1.166-0.688c0.117-0.082,0.24-0.147,0.369-0.197C236.055,131.298,236.189,131.272,236.33,131.272z"/>
	<path fill="#FFFFFF" d="M268.389,126.073c0,1.442-0.307,2.778-0.92,4.008c-0.614,1.23-1.482,2.294-2.604,3.192
		s-2.473,1.6-4.051,2.103c-1.579,0.504-3.332,0.756-5.262,0.756c-1.917,0-3.665-0.252-5.243-0.756
		c-1.579-0.503-2.932-1.204-4.061-2.103c-1.128-0.898-2.002-1.962-2.621-3.192c-0.62-1.229-0.93-2.565-0.93-4.008
		c0-1.443,0.31-2.779,0.93-4.009c0.619-1.229,1.493-2.294,2.621-3.192c1.129-0.898,2.481-1.6,4.061-2.103
		c1.578-0.504,3.326-0.756,5.243-0.756c1.286,0,2.496,0.116,3.63,0.348c1.135,0.231,2.175,0.558,3.122,0.979
		s1.798,0.935,2.552,1.538s1.395,1.277,1.92,2.021c0.526,0.744,0.927,1.552,1.201,2.423
		C268.252,124.194,268.389,125.111,268.389,126.073z M263.566,126.073c0-1.08-0.188-2.049-0.562-2.906s-0.906-1.586-1.596-2.185
		c-0.689-0.6-1.528-1.058-2.517-1.375s-2.102-0.477-3.341-0.477s-2.353,0.159-3.341,0.477s-1.83,0.775-2.525,1.375
		c-0.695,0.599-1.23,1.327-1.604,2.185s-0.562,1.826-0.562,2.906s0.188,2.048,0.562,2.905c0.374,0.858,0.909,1.584,1.604,2.179
		c0.695,0.594,1.537,1.05,2.525,1.367c0.988,0.318,2.102,0.477,3.341,0.477s2.353-0.158,3.341-0.477
		c0.988-0.317,1.827-0.773,2.517-1.367c0.689-0.595,1.222-1.32,1.596-2.179C263.379,128.121,263.566,127.153,263.566,126.073z"/>
	<path fill="#FFFFFF" d="M293.923,116.231v19.683h-2.42c-0.374,0-0.687-0.048-0.938-0.143c-0.251-0.096-0.494-0.257-0.728-0.483
		l-13.24-13.122c0.069,0.6,0.104,1.153,0.104,1.661v12.087h-4.156v-19.683h2.473c0.199,0,0.371,0.007,0.518,0.021
		s0.274,0.041,0.386,0.082s0.22,0.1,0.324,0.177c0.105,0.077,0.223,0.18,0.352,0.307l13.293,13.176
		c-0.035-0.317-0.064-0.631-0.088-0.939s-0.035-0.594-0.035-0.857v-11.965H293.923z"/>
</g>
<g>
	<path fill="#FFFFFF" d="M132.15,126.073c0,1.442-0.271,2.768-0.814,3.975c-0.543,1.207-1.306,2.245-2.289,3.116
		c-0.983,0.872-2.166,1.548-3.548,2.028c-1.382,0.481-2.918,0.722-4.608,0.722h-8.463v-19.683h8.463
		c1.689,0,3.226,0.243,4.608,0.729s2.565,1.161,3.548,2.028c0.983,0.866,1.746,1.903,2.289,3.11
		C131.878,123.306,132.15,124.63,132.15,126.073z M127.911,126.073c0-1.08-0.161-2.049-0.484-2.906
		c-0.322-0.857-0.789-1.584-1.397-2.178c-0.609-0.595-1.347-1.051-2.212-1.368s-1.841-0.477-2.926-0.477h-4.316v13.856h4.316
		c1.085,0,2.061-0.158,2.926-0.477c0.865-0.317,1.603-0.773,2.212-1.367c0.609-0.595,1.075-1.32,1.397-2.179
		C127.75,128.121,127.911,127.153,127.911,126.073z"/>
	<path fill="#FFFFFF" d="M154.744,135.914h-3.195c-0.357,0-0.65-0.079-0.875-0.238c-0.226-0.158-0.395-0.355-0.507-0.592
		l-1.659-4.016h-9.2l-1.659,4.016c-0.082,0.209-0.241,0.399-0.476,0.571c-0.236,0.173-0.528,0.259-0.875,0.259h-3.226l8.74-19.683
		h4.208L154.744,135.914z M147.448,128.482l-2.703-6.548c-0.133-0.29-0.271-0.635-0.415-1.034s-0.287-0.83-0.43-1.293
		c-0.133,0.463-0.271,0.896-0.415,1.3c-0.144,0.404-0.282,0.756-0.415,1.055l-2.688,6.521H147.448z"/>
	<path fill="#FFFFFF" d="M172.745,119.24h-6.766v16.674h-4.174V119.24h-6.766v-3.009h17.705V119.24z"/>
	<path fill="#FFFFFF" d="M194.698,135.914h-3.194c-0.358,0-0.65-0.079-0.876-0.238c-0.225-0.158-0.394-0.355-0.507-0.592
		l-1.658-4.016h-9.2l-1.659,4.016c-0.082,0.209-0.241,0.399-0.477,0.571c-0.235,0.173-0.527,0.259-0.875,0.259h-3.226l8.739-19.683
		h4.209L194.698,135.914z M187.403,128.482l-2.704-6.548c-0.133-0.29-0.271-0.635-0.414-1.034c-0.144-0.399-0.287-0.83-0.431-1.293
		c-0.133,0.463-0.271,0.896-0.414,1.3c-0.144,0.404-0.282,0.756-0.415,1.055l-2.688,6.521H187.403z"/>
</g>
<g>
	<path fill="#FFFFFF" d="M36.508,116.231l-6.723,19.683h-3.639l-4.731-13.448c-0.13-0.327-0.25-0.726-0.359-1.198
		c-0.06,0.228-0.12,0.44-0.18,0.64c-0.06,0.2-0.125,0.387-0.194,0.559l-4.776,13.448h-3.653l-6.708-19.683h3.369
		c0.349,0,0.641,0.075,0.876,0.225c0.234,0.15,0.392,0.352,0.472,0.605l3.683,11.774c0.08,0.291,0.157,0.605,0.232,0.946
		c0.075,0.34,0.152,0.696,0.232,1.068c0.08-0.381,0.167-0.739,0.262-1.075s0.197-0.648,0.307-0.939l4.252-11.774
		c0.08-0.208,0.237-0.398,0.472-0.571c0.234-0.172,0.521-0.259,0.861-0.259h1.183c0.349,0,0.634,0.077,0.854,0.231
		c0.219,0.154,0.384,0.354,0.494,0.599l4.237,11.774c0.209,0.563,0.399,1.212,0.569,1.946c0.129-0.717,0.274-1.365,0.434-1.946
		l3.684-11.774c0.06-0.227,0.212-0.422,0.457-0.585s0.537-0.245,0.876-0.245H36.508z"/>
	<path fill="#FFFFFF" d="M46.567,135.914h-4.735v-19.683h4.735V135.914z"/>
	<path fill="#FFFFFF" d="M59.579,124.48h1.105c0.444,0,0.813-0.048,1.104-0.144c0.292-0.095,0.544-0.247,0.754-0.455l6.997-6.874
		c0.292-0.291,0.599-0.492,0.921-0.606c0.321-0.113,0.728-0.17,1.219-0.17h4.069l-8.541,8.181c-0.503,0.499-1.023,0.854-1.561,1.062
		c0.386,0.109,0.733,0.262,1.043,0.456c0.31,0.195,0.605,0.452,0.886,0.77l8.804,9.215h-4.156c-0.562,0-0.979-0.062-1.254-0.184
		c-0.275-0.123-0.506-0.302-0.693-0.538l-7.173-7.269c-0.222-0.245-0.479-0.417-0.771-0.517c-0.292-0.101-0.713-0.15-1.263-0.15
		h-1.491v8.657h-4.717v-19.683h4.717V124.48z"/>
	<path fill="#FFFFFF" d="M86.271,135.914h-4.735v-19.683h4.735V135.914z"/>
</g>
</svg>
